<svg xmlns="http://www.w3.org/2000/svg"  viewBox="0 0 100 100" width="50px" height="50px"><circle cx="77" cy="13" r="1" fill="#f1bc19"/><circle cx="50" cy="50" r="37" fill="#e6edb7"/><circle cx="83" cy="15" r="4" fill="#f1bc19"/><circle cx="87" cy="24" r="2" fill="#88ae45"/><circle cx="81" cy="76" r="2" fill="#fbcd59"/><circle cx="15" cy="63" r="4" fill="#fbcd59"/><circle cx="25" cy="87" r="2" fill="#88ae45"/><circle cx="18.5" cy="51.5" r="2.5" fill="#fff"/><circle cx="79.5" cy="33.5" r="1.5" fill="#fff"/><rect width="19.295" height="10.853" x="53.238" y="39.647" fill="#96ba45"/><path fill="#5b7729" d="M72.533,50.5H33.944v19.295c0,1.333,1.079,2.412,2.412,2.412h33.766 c1.333,0,2.412-1.079,2.412-2.412V50.5z"/><rect width="19.295" height="10.853" x="53.238" y="50.5" fill="#6f913d"/><rect width="19.295" height="10.853" x="33.944" y="39.647" fill="#6f913d"/><path fill="#c0d078" d="M70.121,28.793H53.238v10.853h19.295v-8.441C72.533,29.873,71.454,28.793,70.121,28.793z"/><path fill="#96ba45" d="M36.356,28.793h16.883v10.853H33.944v-8.441C33.944,29.873,35.023,28.793,36.356,28.793z"/><path fill="#472b29" d="M70.121,72.907H36.355c-1.716,0-3.112-1.396-3.112-3.112v-38.59c0-1.716,1.396-3.112,3.112-3.112 h33.766c1.716,0,3.112,1.396,3.112,3.112v38.59C73.233,71.511,71.837,72.907,70.121,72.907z M36.355,29.494 c-0.944,0-1.712,0.768-1.712,1.711v38.59c0,0.944,0.768,1.711,1.712,1.711h33.766c0.944,0,1.712-0.768,1.712-1.711v-38.59 c0-0.944-0.768-1.711-1.712-1.711H36.355z"/><path fill="#6f913d" d="M45.473,62.559H26.179c-1.333,0-2.412-1.079-2.412-2.412V40.853c0-1.333,1.079-2.412,2.412-2.412 h19.295c1.333,0,2.412,1.079,2.412,2.412v19.295C47.885,61.48,46.806,62.559,45.473,62.559z"/><path fill="#472b29" d="M45.474,39.841c0.558,0,1.012,0.454,1.012,1.012v19.295c0,0.558-0.454,1.012-1.012,1.012H26.179 c-0.558,0-1.012-0.454-1.012-1.012V40.853c0-0.558,0.454-1.012,1.012-1.012H45.474 M45.474,38.441H26.179 c-1.333,0-2.412,1.079-2.412,2.412v19.295c0,1.333,1.079,2.412,2.412,2.412h19.295c1.333,0,2.412-1.079,2.412-2.412V40.853 C47.885,39.52,46.806,38.441,45.474,38.441L45.474,38.441z"/><path fill="#fff" d="M30.77,44.47h2.877l2.335,4.527l2.467-4.527h2.688l-3.703,6.03l3.788,6.03h-2.835l-2.544-4.739 l-2.534,4.739h-2.877l3.85-6.051L30.77,44.47z"/><path fill="#472b29" d="M41.137,44.47l-3.703,6.03l3.788,6.03h-2.835l-2.544-4.739l-2.534,4.739h-2.877l3.851-6.051 L30.77,44.47h2.877l2.335,4.527l2.467-4.527H41.137 M41.137,43.97h-2.688c-0.183,0-0.351,0.1-0.439,0.261l-2.016,3.699 l-1.903-3.689c-0.086-0.166-0.257-0.271-0.444-0.271H30.77c-0.179,0-0.344,0.096-0.434,0.251c-0.089,0.155-0.088,0.347,0.002,0.501 l3.358,5.745l-3.687,5.794c-0.098,0.154-0.104,0.349-0.016,0.509c0.088,0.16,0.256,0.259,0.438,0.259h2.877 c0.184,0,0.354-0.102,0.441-0.264l2.094-3.916l2.103,3.917c0.087,0.162,0.256,0.263,0.441,0.263h2.835 c0.182,0,0.35-0.099,0.438-0.258s0.083-0.354-0.014-0.508l-3.623-5.767l3.541-5.765c0.095-0.154,0.099-0.348,0.01-0.506 S41.318,43.97,41.137,43.97L41.137,43.97z"/><path fill="#472b29" d="M53.238,72.226c-0.138,0-0.25-0.112-0.25-0.25V29c0-0.138,0.112-0.25,0.25-0.25 s0.25,0.112,0.25,0.25v42.975C53.488,72.114,53.376,72.226,53.238,72.226z"/><path fill="#472b29" d="M72.533,39.897H49.557c-0.138,0-0.25-0.112-0.25-0.25s0.112-0.25,0.25-0.25h22.977 c0.138,0,0.25,0.112,0.25,0.25S72.671,39.897,72.533,39.897z"/><path fill="#472b29" d="M56.174,50.738h-9.138c-0.138,0-0.25-0.112-0.25-0.25s0.112-0.25,0.25-0.25h9.138 c0.138,0,0.25,0.112,0.25,0.25S56.312,50.738,56.174,50.738z"/><path fill="#472b29" d="M63.488,50.738h-5.604c-0.138,0-0.25-0.112-0.25-0.25s0.112-0.25,0.25-0.25h5.604 c0.138,0,0.25,0.112,0.25,0.25S63.626,50.738,63.488,50.738z"/><path fill="#472b29" d="M72.533,50.738H65c-0.138,0-0.25-0.112-0.25-0.25s0.112-0.25,0.25-0.25h7.533 c0.138,0,0.25,0.112,0.25,0.25S72.671,50.738,72.533,50.738z"/><path fill="#472b29" d="M72.533,61.579H47.036c-0.138,0-0.25-0.112-0.25-0.25s0.112-0.25,0.25-0.25h25.497 c0.138,0,0.25,0.112,0.25,0.25S72.671,61.579,72.533,61.579z"/></svg>